<?xml version="1.0" encoding="utf-8"?>
<svg version="1.1" baseProfile="tiny" id="Layer_1" xmlns="http://www.w3.org/2000/svg" xmlns:xlink="http://www.w3.org/1999/xlink"
	 x="0px" y="0px" width="157.8px" height="20.6px" viewBox="-225.9 375.3 157.8 20.6" xml:space="preserve">
<g>
	<g>
		<path fill="#001832" d="M-221.4,380.2v2.2h7.8v4.3c0,0-5.2,0.2-7.8,0.3v8.5h-4.3c0,0-0.1-8.7-0.2-13.4c0-2.4,0.3-6.6,0.3-6.6
			l13-0.1v4.3L-221.4,380.2z"/>
		<path fill="#001832" d="M-199.3,395.9c-5,0-9-1.8-9-10c0-3.6,0.3-10.4,0.3-10.4h4.5c0,0-0.1,7.2-0.1,10.4c0,4.3,1.9,5.5,4.4,5.5
			s4.4-1.2,4.4-5.5c0-3.2-0.1-10.4-0.1-10.4h4.5c0,0,0.2,6.8,0.2,10.4C-190.3,394.1-194.4,395.9-199.3,395.9z"/>
		<path fill="#001832" d="M-181.4,395.5h-4.2c0,0-0.1-7.7-0.2-12.4c0-2.4,0.2-7.6,0.2-7.6h4l8.6,13.6l-0.3-13.5h4.2
			c0,0,0.1,7.6,0.2,12.2c0,2.4-0.2,7.7-0.2,7.7h-4.4l-8.3-12.4L-181.4,395.5z"/>
		<path fill="#001832" d="M-154,395.5c0,0-3-5.4-4.6-8.5l-1.3,1.5v7h-4.1c0,0-0.1-7.7-0.1-12.2c0-2.4,0.2-7.7,0.2-7.7h4.1v7
			c1.9-2.2,4.9-6.4,5.4-7h5.1c-2.3,3.3-4.8,6.6-6,8.1c1.3,2.6,6,11.8,6,11.8H-154z"/>
		<path fill="#001832" d="M-130,395.5h-4.4v-8h-6.6l-0.3,7.9h-4.1c0,0-0.1-7.7-0.2-12.3c0-2.4,0.3-7.6,0.3-7.6h4.3v7.5h6.6l0.3-7.3
			h4.2c0,0,0.1,7.5,0.2,12.1C-129.7,390.2-130,395.5-130,395.5z"/>
		<path fill="#001832" d="M-113.4,395.5l-1.5-4.6h-5.3l-1.5,4.6h-4.6c0-1.1,6.6-19.9,7.2-19.9h3.2c0.7,0,7.1,18.9,7.1,19.9H-113.4z
			 M-117.5,382.1L-117.5,382.1c-0.1,0.1-1.6,4.9-1.6,4.9h3.2L-117.5,382.1z"/>
		<path fill="#001832" d="M-97.6,395.9c-5,0-9-1.8-9-10c0-3.6,0.3-10.4,0.3-10.4h4.5c0,0-0.1,7.2-0.1,10.4c0,4.3,1.9,5.5,4.4,5.5
			s4.4-1.2,4.4-5.5c0-3.2-0.1-10.4-0.1-10.4h4.5c0,0,0.2,6.8,0.2,10.4C-88.6,394.1-92.7,395.9-97.6,395.9z"/>
		<path fill="#001832" d="M-76.6,395.9c-4.4,0-7.9-1.2-8.4-6.8l4.5-0.2c0.4,2.3,2.1,2.4,3.9,2.4c2.1,0,4-0.1,4-1.9
			c0-1.9-1.9-1.9-4-1.9c-4.4,0-7.8-1.4-7.8-6.1c0-4.7,3.3-6.1,7.8-6.1c4.1,0,7.2,1.2,7.7,6.2l-4.4,0.2c-0.4-1.9-1.8-2-3.3-2
			c-1.7,0-3.4,0-3.4,1.7c0,1.7,1.6,1.7,3.4,1.7c4.8,0,8.5,1.4,8.5,6.4C-68.1,394.4-71.8,395.9-76.6,395.9z"/>
	</g>
</g>
</svg>
