<svg xmlns="http://www.w3.org/2000/svg" viewBox="0 0 100 125" >
  <path d="M47.61,84.66a2.49,2.49,0,0,1-1.77-.73l-29-29-.21-.22C7,44.83,6.31,29.52,15.21,20.62c8.41-8.41,22.51-8.29,32.41-.09,9.89-8.2,24-8.31,32.4.09h0c8.9,8.9,8.24,24.22-1.48,34.14l-.2.22L49.38,83.93A2.49,2.49,0,0,1,47.61,84.66ZM30.85,19.33a16.9,16.9,0,0,0-12.1,4.82c-7,7-6.29,19.13,1.52,27.11l.18.19L47.61,78.63,74.8,51.44l.17-.18c7.81-8,8.49-20.13,1.51-27.1s-19.13-6.3-27.1,1.5a2.62,2.62,0,0,1-3.53,0A21.63,21.63,0,0,0,30.85,19.33Z"/>
  <!-- <text x="0" y="115" fill="#000000" font-size="5px" font-weight="bold" font-family="'Helvetica Neue', Helvetica, Arial-Unicode, Arial, Sans-serif">Created by Brandy Bora</text><text x="0" y="120" fill="#000000" font-size="5px" font-weight="bold" font-family="'Helvetica Neue', Helvetica, Arial-Unicode, Arial, Sans-serif">from the Noun Project</text> -->
</svg>
