<svg xmlns="http://www.w3.org/2000/svg" version="1.1" viewBox="0 0 100 125">
  <g transform="translate(0,-952.36218)">
    <path style="font-size:medium;font-style:normal;font-variant:normal;font-weight:normal;font-stretch:normal;text-indent:0;text-align:start;text-decoration:none;line-height:normal;letter-spacing:normal;word-spacing:normal;text-transform:none;direction:ltr;block-progression:tb;writing-mode:lr-tb;text-anchor:start;baseline-shift:baseline;opacity:1;color:#000000;fill:#000000;fill-opacity:1;stroke:none;stroke-width:6;marker:none;visibility:visible;display:inline;overflow:visible;enable-background:accumulate;font-family:Sans;-inkscape-font-specification:Sans" d="M 67.65625 20.90625 A 3.0003 3.0003 0 0 0 65 23.9375 L 65 25.5625 L 17.6875 36.9375 L 8 36.9375 A 3.0003 3.0003 0 0 0 5 39.9375 L 5 57.9375 A 3.0003 3.0003 0 0 0 8 60.9375 L 17 60.9375 A 3.0003 3.0003 0 1 0 17 54.9375 L 11 54.9375 L 11 42.9375 L 18 42.9375 A 3.0003 3.0003 0 0 0 18.6875 42.84375 L 65 31.6875 L 65 66.1875 L 27.6875 57.1875 A 3.0003 3.0003 0 0 0 26.8125 57.09375 A 3.0003 3.0003 0 0 0 24 60.09375 L 24 70.9375 A 3.0003 3.0003 0 0 0 26.375 73.875 L 50.375 78.96875 A 3.0003 3.0003 0 0 0 54 76.03125 L 54 69.6875 L 65 72.3125 L 65 73.9375 A 3.0003 3.0003 0 1 0 71 73.9375 L 71 70.71875 A 3.0003 3.0003 0 0 0 71 69.25 L 71 23.9375 A 3.0003 3.0003 0 0 0 67.65625 20.90625 z M 91.78125 28.9375 A 3.0003 3.0003 0 0 0 91 29.125 L 77 34.125 A 3.0003 3.0003 0 1 0 79 39.78125 L 93 34.78125 A 3.0003 3.0003 0 0 0 91.78125 28.9375 z M 77.6875 44.9375 A 3.0040663 3.0040663 0 1 0 78 50.9375 L 92 50.9375 A 3.0003 3.0003 0 1 0 92 44.9375 L 78 44.9375 A 3.0003 3.0003 0 0 0 77.6875 44.9375 z M 77.84375 57.9375 A 3.0003 3.0003 0 0 0 77 63.78125 L 91 68.78125 A 3.0003 3.0003 0 1 0 93 63.125 L 79 58.125 A 3.0003 3.0003 0 0 0 77.84375 57.9375 z M 30 63.875 L 48 68.21875 L 48 72.3125 L 30 68.5 L 30 63.875 z " transform="translate(0,952.36218)"/>
  </g>
  <!-- <text x="0" y="115" fill="#000000" font-size="5px" font-weight="bold" font-family="'Helvetica Neue', Helvetica, Arial-Unicode, Arial, Sans-serif">Created by bezier master</text><text x="0" y="120" fill="#000000" font-size="5px" font-weight="bold" font-family="'Helvetica Neue', Helvetica, Arial-Unicode, Arial, Sans-serif">from the Noun Project</text> -->
</svg>
