<svg xmlns="http://www.w3.org/2000/svg" xmlns:xlink="http://www.w3.org/1999/xlink" version="1.1" viewBox="0 0 100 125" style="enable-background:new 0 0 100 100;" xml:space="preserve">
  <g>
    <path d="M50.1,17.8c-8.4,0-15.2,6.8-15.2,15.2s6.8,15.2,15.2,15.2S65.4,41.4,65.4,33S58.6,17.8,50.1,17.8z M50.1,42.7   c-5.4,0-9.7-4.4-9.7-9.7c0-5.4,4.4-9.7,9.7-9.7c5.4,0,9.7,4.4,9.7,9.7C59.9,38.4,55.5,42.7,50.1,42.7z"/><path d="M50,5C25.2,5,5,25.2,5,50s20.2,45,45,45s45-20.2,45-45S74.8,5,50,5z M27,82c0-0.1,0-0.1,0-0.2C27,69,37.4,58.6,50.1,58.6   c12.8,0,23.1,10.4,23.2,23.1c-6.5,4.8-14.6,7.7-23.3,7.7C41.4,89.5,33.4,86.7,27,82z M78.4,77.3c-2.2-13.7-14-24.2-28.3-24.2   c-14.4,0-26.3,10.7-28.3,24.5c-7-7.1-11.3-16.9-11.3-27.6c0-21.8,17.7-39.5,39.5-39.5S89.5,28.2,89.5,50   C89.4,60.6,85.2,70.2,78.4,77.3z"/>
  </g>
  <!-- <text x="0" y="115" fill="#000000" font-size="5px" font-weight="bold" font-family="'Helvetica Neue', Helvetica, Arial-Unicode, Arial, Sans-serif">Created by Beau Wingfield</text><text x="0" y="120" fill="#000000" font-size="5px" font-weight="bold" font-family="'Helvetica Neue', Helvetica, Arial-Unicode, Arial, Sans-serif">from the Noun Project</text> -->
</svg>
