<svg xmlns="http://www.w3.org/2000/svg" width="107" height="30" viewBox="0 -10 106.5999 30">
    <g class="site-by" fill="#fff">
        <path class="letter s" d="M.9,5.9A1.8746,1.8746,0,0,0,2.8,7.1c1,0,1.6-.5,1.6-1.3,0-.6-.3-.9-1.1-1.2L1.9,4.3C.9,4,.1,3.5.1,2.4A2.1948,2.1948,0,0,1,2.5.3,2.5721,2.5721,0,0,1,5.2,2.2H4.4A1.8416,1.8416,0,0,0,2.6,1.1c-.9,0-1.5.5-1.5,1.2,0,.6.4.9,1.2,1.1l1.3.3c1.2.3,1.8.9,1.8,2,0,1.4-1.1,2.2-2.6,2.2A2.5736,2.5736,0,0,1,0,5.9H.9Z"   />
        <g class="letter i">
            <path class="dot" d="M7,1.4A.6453.6453,0,0,1,6.4.8.6452.6452,0,0,1,7,.2a.6453.6453,0,0,1,.6.6A.5764.5764,0,0,1,7,1.4Z"  />
            <rect class="stem" x="6.5999" y="2.5" width="0.9" height="5.3"/>
        </g>
        <path class="letter t" d="M9.3,3.2H8.5V2.5h.8V1h.9V2.4h1.3v.8H10.2V6.3a.6317.6317,0,0,0,.7.7,1.4457,1.4457,0,0,0,.7-.2v.8a1.1358,1.1358,0,0,1-.8.3A1.3679,1.3679,0,0,1,9.3,6.4V3.2Z"   />
        <path class="letter e" d="M17.1,4.9c0-1.5-.7-2.6-2.2-2.6a2.5433,2.5433,0,0,0-2.4,2.8c0,1.7.9,2.8,2.4,2.8A1.9917,1.9917,0,0,0,17,6.2h0V6.1h-.9c-.1.6-.6.9-1.3.9-.9,0-1.5-.7-1.5-1.8h3.8Zm-3.7-.3a1.5357,1.5357,0,0,1,1.5-1.5c.9,0,1.3.7,1.3,1.5Z"   />
        <path class="letter b" d="M23.4,2.4a1.8058,1.8058,0,0,0-1.5.7V0H21V7.8h.9V7.3a1.8061,1.8061,0,0,0,1.5.7c1.6,0,2.4-1.3,2.4-2.8S25,2.4,23.4,2.4Zm-.1,4.7a1.5083,1.5083,0,0,1-1.4-.9V4a1.5084,1.5084,0,0,1,1.4-.9c1,0,1.6.8,1.6,2S24.3,7.1,23.3,7.1Z"   />
        <path class="letter y" d="M27.6,9.8l.8-2L26.3,2.5h1l1.6,4.2,1.5-4.2h.9L28.4,9.9l-.8-.1Z"   />
        <g class="colon letter" >
            <path class="top-dot" d="M32.6,2.8a.6688.6688,0,0,1,.6.7.6.6,0,0,1-1.2,0A.5626.5626,0,0,1,32.6,2.8Z"  />
            <path class="bottom-dot" d="M32.6,6.5a.6688.6688,0,0,1,.6.7.6.6,0,0,1-1.2,0A.5626.5626,0,0,1,32.6,6.5Z"  />
        </g>
    </g>

    <g class="funkhaus" fill="#fff">
        <path class="letter f" d="M42.3,2.1l-3.8.2v.9h3.4V5s-2.2.1-3.4.1V8.9H36.7s-.1-3.7-.1-5.7c0-1,.1-2.8.1-2.8h5.6V2.1Z"   />
        <path class="letter u first" d="M48.2,9c-2.1,0-3.8-.8-3.8-4.3,0-1.5.1-4.4.1-4.4h1.9V4.7c0,1.8.8,2.3,1.9,2.3s1.9-.5,1.9-2.3V.3h1.9s.1,2.9.1,4.4C52,8.2,50.3,9,48.2,9Z"   />
        <path class="letter n" d="M61.6,8.9H59.7L56.2,3.6l.2,5.3H54.6s0-3.3-.1-5.3c0-1,.1-3.2.1-3.2h1.7L60,6.2,59.9.4h1.8s0,3.2.1,5.2C61.7,6.6,61.6,8.9,61.6,8.9Z"   />
        <path class="letter k" d="M70.5,8.9h-2s-1.3-2.3-2-3.6l-.5.6v3H64.3s0-3.3-.1-5.2c0-1,.1-3.3.1-3.3H66v3c.8-1,2.1-2.7,2.3-3h2.2L68,3.9Z"   />
        <path class="letter h" d="M78.8,8.9H76.9V5.5H74.1L74,8.9H72.2s0-3.3-.1-5.2c0-1,.1-3.2.1-3.2h1.9V3.7h2.8L77,.6h1.8s0,3.2.1,5.2C78.9,6.6,78.8,8.9,78.8,8.9Z"   />
        <path class="letter a" d="M85.1.4H83.7c-.3,0-3.1,8-3.1,8.5h2l.7-2h2.3l.6,2h1.9C88.1,8.5,85.4.4,85.1.4ZM83.7,5.2l.6-2.1.8,2.1Z"   />
        <path class="letter u second" d="M93.3,9c-2.1,0-3.8-.8-3.8-4.3,0-1.5.1-4.4.1-4.4h1.9V4.7c0,1.8.8,2.3,1.9,2.3s1.9-.5,1.9-2.3V.3h1.9s.1,2.9.1,4.4C97.2,8.2,95.5,9,93.3,9Z"   />
        <path class="letter s" d="M103,9c-1.9,0-3.4-.5-3.6-2.9l1.9-.1c.2,1,.9,1,1.7,1,.9,0,1.7,0,1.7-.8s-.8-.8-1.7-.8c-1.9,0-3.3-.6-3.3-2.6S101.1.2,103,.2c1.7,0,3.1.5,3.3,2.7l-1.9.1c-.2-.8-.8-.9-1.4-.9-.7,0-1.4,0-1.4.7s.7.7,1.4.7c2.1,0,3.6.6,3.6,2.7C106.6,8.4,105.1,9,103,9Z"   />
    </g>
</svg>
